<mxfile host="app.diagrams.net" agent="Mozilla/5.0 (iPhone; CPU iPhone OS 18_3_1 like Mac OS X) AppleWebKit/605.1.15 (KHTML, like Gecko) GSA/354.0.720749604 Mobile/15E148 Safari/604.1" version="26.0.12">
  <diagram name="Page-1" id="90a13364-a465-7bf4-72fc-28e22215d7a0">
    <mxGraphModel grid="1" page="1" gridSize="10" guides="1" tooltips="1" connect="1" arrows="1" fold="1" pageScale="1.5" pageWidth="1169" pageHeight="826" background="none" math="0" shadow="0">
      <root>
        <mxCell id="0" style=";html=1;" />
        <mxCell id="1" style=";html=1;" parent="0" />
        <mxCell id="TL-7t31Uob3rhhL5269z-23" value="" style="rounded=0;whiteSpace=wrap;html=1;movable=0;resizable=0;rotatable=0;deletable=0;editable=0;locked=1;connectable=0;" vertex="1" parent="1">
          <mxGeometry x="70" y="1470" width="1570" height="700" as="geometry" />
        </mxCell>
        <mxCell id="TL-7t31Uob3rhhL5269z-9" style="edgeStyle=orthogonalEdgeStyle;rounded=0;orthogonalLoop=1;jettySize=auto;html=1;entryX=0;entryY=0.5;entryDx=0;entryDy=0;" edge="1" parent="1" source="TL-7t31Uob3rhhL5269z-1" target="TL-7t31Uob3rhhL5269z-8">
          <mxGeometry relative="1" as="geometry" />
        </mxCell>
        <mxCell id="TL-7t31Uob3rhhL5269z-1" value="&lt;font style=&quot;font-size: 24px;&quot; face=&quot;Times New Roman&quot;&gt;Dataset Pre-Processing&lt;/font&gt;" style="rounded=1;whiteSpace=wrap;html=1;fillColor=light-dark(#999999,var(--ge-dark-color, #121212));" vertex="1" parent="1">
          <mxGeometry x="480" y="1515" width="285" height="150" as="geometry" />
        </mxCell>
        <mxCell id="TL-7t31Uob3rhhL5269z-2" value="" style="endArrow=classic;html=1;rounded=0;entryX=0;entryY=0.5;entryDx=0;entryDy=0;exitX=1;exitY=0.5;exitDx=0;exitDy=0;" edge="1" parent="1" source="TL-7t31Uob3rhhL5269z-4" target="TL-7t31Uob3rhhL5269z-1">
          <mxGeometry width="50" height="50" relative="1" as="geometry">
            <mxPoint x="330" y="1595" as="sourcePoint" />
            <mxPoint x="420" y="1570" as="targetPoint" />
          </mxGeometry>
        </mxCell>
        <mxCell id="TL-7t31Uob3rhhL5269z-6" value="" style="group" connectable="0" vertex="1" parent="1">
          <mxGeometry x="170" y="1540" width="140" height="100" as="geometry" />
        </mxCell>
        <mxCell id="TL-7t31Uob3rhhL5269z-5" value="" style="shape=document;whiteSpace=wrap;html=1;boundedLbl=1;" vertex="1" parent="TL-7t31Uob3rhhL5269z-6">
          <mxGeometry x="20" width="120" height="80" as="geometry" />
        </mxCell>
        <mxCell id="TL-7t31Uob3rhhL5269z-4" value="" style="shape=document;whiteSpace=wrap;html=1;boundedLbl=1;" vertex="1" parent="TL-7t31Uob3rhhL5269z-6">
          <mxGeometry x="10" y="10" width="120" height="80" as="geometry" />
        </mxCell>
        <mxCell id="TL-7t31Uob3rhhL5269z-3" value="" style="shape=document;whiteSpace=wrap;html=1;boundedLbl=1;" vertex="1" parent="TL-7t31Uob3rhhL5269z-6">
          <mxGeometry y="20" width="120" height="80" as="geometry" />
        </mxCell>
        <mxCell id="TL-7t31Uob3rhhL5269z-7" value="&lt;div align=&quot;justify&quot;&gt;&lt;font face=&quot;Times New Roman&quot; style=&quot;font-size: 24px;&quot;&gt;Sign Language Dataset Loading&lt;/font&gt;&lt;/div&gt;&lt;br&gt;&lt;font face=&quot;Times New Roman&quot; style=&quot;font-size: 24px;&quot;&gt;(ASL, BSL etc.)&lt;/font&gt;" style="text;html=1;align=center;verticalAlign=middle;whiteSpace=wrap;rounded=0;" vertex="1" parent="1">
          <mxGeometry x="70" y="1610" width="340" height="110" as="geometry" />
        </mxCell>
        <mxCell id="TL-7t31Uob3rhhL5269z-11" style="edgeStyle=orthogonalEdgeStyle;rounded=0;orthogonalLoop=1;jettySize=auto;html=1;exitX=1;exitY=0.5;exitDx=0;exitDy=0;entryX=0;entryY=0.5;entryDx=0;entryDy=0;" edge="1" parent="1" source="TL-7t31Uob3rhhL5269z-8" target="TL-7t31Uob3rhhL5269z-10">
          <mxGeometry relative="1" as="geometry" />
        </mxCell>
        <mxCell id="TL-7t31Uob3rhhL5269z-8" value="&lt;font style=&quot;font-size: 24px;&quot; face=&quot;Times New Roman&quot;&gt;Data Encoding&lt;/font&gt;" style="rounded=1;whiteSpace=wrap;html=1;fillColor=light-dark(#999999,var(--ge-dark-color, #121212));" vertex="1" parent="1">
          <mxGeometry x="895" y="1515" width="285" height="150" as="geometry" />
        </mxCell>
        <mxCell id="TL-7t31Uob3rhhL5269z-13" style="edgeStyle=orthogonalEdgeStyle;rounded=0;orthogonalLoop=1;jettySize=auto;html=1;entryX=0.5;entryY=0;entryDx=0;entryDy=0;" edge="1" parent="1" source="TL-7t31Uob3rhhL5269z-10" target="TL-7t31Uob3rhhL5269z-12">
          <mxGeometry relative="1" as="geometry" />
        </mxCell>
        <mxCell id="TL-7t31Uob3rhhL5269z-10" value="&lt;font style=&quot;font-size: 24px;&quot; face=&quot;Times New Roman&quot;&gt;Feature Extraction&lt;/font&gt;" style="rounded=1;whiteSpace=wrap;html=1;fillColor=light-dark(#999999,var(--ge-dark-color, #121212));" vertex="1" parent="1">
          <mxGeometry x="1282.5" y="1515" width="285" height="150" as="geometry" />
        </mxCell>
        <mxCell id="TL-7t31Uob3rhhL5269z-15" style="edgeStyle=orthogonalEdgeStyle;rounded=0;orthogonalLoop=1;jettySize=auto;html=1;entryX=1;entryY=0.5;entryDx=0;entryDy=0;" edge="1" parent="1" source="TL-7t31Uob3rhhL5269z-12" target="TL-7t31Uob3rhhL5269z-14">
          <mxGeometry relative="1" as="geometry" />
        </mxCell>
        <mxCell id="TL-7t31Uob3rhhL5269z-12" value="&lt;font face=&quot;Times New Roman&quot; style=&quot;font-size: 24px;&quot;&gt;Model Training&lt;/font&gt;" style="rounded=1;whiteSpace=wrap;html=1;fillColor=light-dark(#999999,var(--ge-dark-color, #121212));" vertex="1" parent="1">
          <mxGeometry x="1282.5" y="1890" width="285" height="150" as="geometry" />
        </mxCell>
        <mxCell id="TL-7t31Uob3rhhL5269z-14" value="&lt;font style=&quot;font-size: 24px;&quot; face=&quot;Times New Roman&quot;&gt;Performance Measurement&lt;/font&gt;" style="rounded=1;whiteSpace=wrap;html=1;fillColor=light-dark(#999999,var(--ge-dark-color, #121212));" vertex="1" parent="1">
          <mxGeometry x="895" y="1890" width="285" height="150" as="geometry" />
        </mxCell>
        <mxCell id="TL-7t31Uob3rhhL5269z-17" value="&lt;div align=&quot;justify&quot;&gt;&lt;font style=&quot;font-size: 24px;&quot; face=&quot;Times New Roman&quot;&gt;Using standardized libraries, tokenization and cleaning was done on the dataset&lt;/font&gt;&lt;/div&gt;" style="text;html=1;align=center;verticalAlign=middle;whiteSpace=wrap;rounded=0;" vertex="1" parent="1">
          <mxGeometry x="452.5" y="1670" width="340" height="110" as="geometry" />
        </mxCell>
        <mxCell id="TL-7t31Uob3rhhL5269z-18" value="&lt;div align=&quot;justify&quot;&gt;&lt;font style=&quot;font-size: 24px;&quot; face=&quot;Times New Roman&quot;&gt;Categorical values were encoded using LabelEncoder&lt;/font&gt;&lt;/div&gt;" style="text;html=1;align=center;verticalAlign=middle;whiteSpace=wrap;rounded=0;" vertex="1" parent="1">
          <mxGeometry x="888" y="1690" width="322" height="30" as="geometry" />
        </mxCell>
        <mxCell id="TL-7t31Uob3rhhL5269z-20" value="&lt;font face=&quot;Times New Roman&quot; style=&quot;font-size: 24px;&quot;&gt;Model for feature extraction (segmentation)&lt;/font&gt;" style="text;html=1;align=center;verticalAlign=middle;whiteSpace=wrap;rounded=0;" vertex="1" parent="1">
          <mxGeometry x="1440" y="1760" width="140" height="30" as="geometry" />
        </mxCell>
        <mxCell id="TL-7t31Uob3rhhL5269z-21" value="&lt;font style=&quot;font-size: 24px;&quot; face=&quot;Times New Roman&quot;&gt;Accuracy, Precision, and F1-Score were calculated&lt;/font&gt;" style="text;html=1;align=center;verticalAlign=middle;whiteSpace=wrap;rounded=0;" vertex="1" parent="1">
          <mxGeometry x="898" y="2060" width="302" height="30" as="geometry" />
        </mxCell>
        <mxCell id="TL-7t31Uob3rhhL5269z-22" value="&lt;div align=&quot;justify&quot;&gt;&lt;font face=&quot;Times New Roman&quot; style=&quot;font-size: 24px;&quot;&gt;Model will be trained&lt;/font&gt;&lt;/div&gt;" style="text;html=1;align=center;verticalAlign=middle;whiteSpace=wrap;rounded=0;" vertex="1" parent="1">
          <mxGeometry x="1260" y="2050" width="330" height="30" as="geometry" />
        </mxCell>
      </root>
    </mxGraphModel>
  </diagram>
</mxfile>
